<svg viewBox="0 0 800 600" xmlns="http://www.w3.org/2000/svg">
  <defs>
    <linearGradient id="bg" x1="0%" y1="0%" x2="100%" y2="100%">
      <stop offset="0%" style="stop-color:#fef7f7"/>
      <stop offset="100%" style="stop-color:#fff1f2"/>
    </linearGradient>
    <radialGradient id="dangerGlow" cx="50%" cy="50%" r="50%">
      <stop offset="0%" style="stop-color:#fecaca" stop-opacity="0.9"/>
      <stop offset="100%" style="stop-color:#fecaca" stop-opacity="0"/>
    </radialGradient>
  </defs>
  
  <!-- Background -->
  <rect width="800" height="600" fill="url(#bg)"/>
  
  <!-- Main AI robot with glitch/error -->
  <g transform="translate(300, 200)">
    <!-- Danger aura -->
    <ellipse cx="100" cy="100" rx="120" ry="100" fill="url(#dangerGlow)"/>
    
    <!-- Robot body -->
    <rect x="50" y="80" width="100" height="120" fill="#64748b" stroke="#475569" stroke-width="4" rx="15"/>
    
    <!-- Robot head -->
    <rect x="60" y="40" width="80" height="60" fill="#64748b" stroke="#475569" stroke-width="4" rx="10"/>
    
    <!-- Malfunctioning eyes -->
    <circle cx="80" cy="60" r="10" fill="#ef4444"/>
    <circle cx="120" cy="60" r="10" fill="#ef4444"/>
    <text x="80" y="68" text-anchor="middle" font-size="16" fill="white">×</text>
    <text x="120" y="68" text-anchor="middle" font-size="16" fill="white">×</text>
    
    <!-- Sparking/glitching -->
    <g>
      <circle cx="30" cy="70" r="3" fill="#fbbf24">
        <animate attributeName="opacity" values="1;0;1" dur="0.3s" repeatCount="indefinite"/>
      </circle>
      <circle cx="170" cy="60" r="4" fill="#fbbf24">
        <animate attributeName="opacity" values="0;1;0" dur="0.5s" repeatCount="indefinite"/>
      </circle>
      <circle cx="40" cy="120" r="2" fill="#f59e0b">
        <animate attributeName="opacity" values="1;0;1" dur="0.4s" repeatCount="indefinite"/>
      </circle>
      <circle cx="160" cy="140" r="3" fill="#f59e0b">
        <animate attributeName="opacity" values="0;1;0" dur="0.6s" repeatCount="indefinite"/>
      </circle>
    </g>
    
    <!-- Speech bubble with false information -->
    <g transform="translate(-100, -80)">
      <ellipse cx="120" cy="60" rx="80" ry="40" fill="#ef4444" stroke="#dc2626" stroke-width="3"/>
      <path d="M100 85 L120 110 L140 85 Z" fill="#ef4444"/>
      
      <!-- False medical claim with emoji -->
      <text x="120" y="45" text-anchor="middle" font-size="20" fill="white">🌿 100% ✓</text>
      <text x="120" y="70" text-anchor="middle" font-size="14" font-weight="bold" fill="white">GIẢI PHÁP</text>
      
      <!-- Warning overlay -->
      <rect x="40" y="20" width="160" height="80" fill="none" stroke="#fbbf24" stroke-width="4" stroke-dasharray="10,5" rx="20">
        <animate attributeName="stroke-width" values="4;6;4" dur="1s" repeatCount="indefinite"/>
      </rect>
    </g>
  </g>
  
  <!-- Large warning signs around the robot -->
  <g transform="translate(150, 120)">
    <circle cx="30" cy="30" r="25" fill="#ef4444" stroke="#dc2626" stroke-width="3">
      <animate attributeName="r" values="25;30;25" dur="2s" repeatCount="indefinite"/>
    </circle>
    <text x="30" y="25" text-anchor="middle" font-size="24" font-weight="bold" fill="white">!</text>
    <circle cx="30" cy="40" r="3" fill="white"/>
  </g>
  
  <g transform="translate(520, 140)">
    <circle cx="30" cy="30" r="25" fill="#ef4444" stroke="#dc2626" stroke-width="3">
      <animate attributeName="r" values="25;30;25" dur="2.5s" repeatCount="indefinite"/>
    </circle>
    <text x="30" y="25" text-anchor="middle" font-size="24" font-weight="bold" fill="white">!</text>
    <circle cx="30" cy="40" r="3" fill="white"/>
  </g>
  
  <g transform="translate(180, 380)">
    <circle cx="30" cy="30" r="25" fill="#ef4444" stroke="#dc2626" stroke-width="3">
      <animate attributeName="r" values="25;30;25" dur="1.8s" repeatCount="indefinite"/>
    </circle>
    <text x="30" y="25" text-anchor="middle" font-size="24" font-weight="bold" fill="white">!</text>
    <circle cx="30" cy="40" r="3" fill="white"/>
  </g>
  
  <g transform="translate(550, 380)">
    <circle cx="30" cy="30" r="25" fill="#ef4444" stroke="#dc2626" stroke-width="3">
      <animate attributeName="r" values="25;30;25" dur="2.2s" repeatCount="indefinite"/>
    </circle>
    <text x="30" y="25" text-anchor="middle" font-size="24" font-weight="bold" fill="white">!</text>
    <circle cx="30" cy="40" r="3" fill="white"/>
  </g>
  
  <!-- Verification shield blocking false info -->
  <g transform="translate(600, 250)">
    <!-- Shield -->
    <path d="M40 20 L70 35 L70 75 L40 100 L10 75 L10 35 Z" fill="#22c55e" stroke="#16a34a" stroke-width="3"/>
    <text x="40" y="55" text-anchor="middle" font-size="24" font-weight="bold" fill="white">🔍</text>
    <text x="40" y="75" text-anchor="middle" font-size="12" font-weight="bold" fill="white">XÁC MINH</text>
    
    <!-- Blocked arrow -->
    <g transform="translate(80, 45)">
      <path d="M0 15 L30 15" stroke="#ef4444" stroke-width="4" marker-end="url(#blockedArrow)"/>
      <rect x="10" y="5" width="20" height="20" fill="none" stroke="#ef4444" stroke-width="3"/>
      <path d="M15 10 L25 20 M25 10 L15 20" stroke="#ef4444" stroke-width="3"/>
    </g>
  </g>
  
  <!-- Mirage effect - false information dissolving -->
  <g transform="translate(100, 450)">
    <!-- Book dissolving -->
    <g opacity="0.7">
      <rect x="0" y="0" width="60" height="80" fill="#8b5cf6" stroke="#7c3aed" stroke-width="2" rx="5"/>
      <text x="30" y="30" text-anchor="middle" font-size="24" fill="white">📚</text>
      <text x="30" y="55" text-anchor="middle" font-size="10" font-weight="bold" fill="white">AI Tạo Ra</text>
      
      <!-- Dissolving particles -->
      <g>
        <circle cx="10" cy="85" r="2" fill="#8b5cf6" opacity="0.8"/>
        <circle cx="25" cy="90" r="1.5" fill="#8b5cf6" opacity="0.6"/>
        <circle cx="40" cy="88" r="1" fill="#8b5cf6" opacity="0.4"/>
        <circle cx="55" cy="92" r="0.5" fill="#8b5cf6" opacity="0.2"/>
      </g>
    </g>
    <text x="30" y="110" text-anchor="middle" font-size="16" font-style="italic" fill="#64748b">Thông Tin Giả</text>
  </g>
  
  <!-- Doctor with verification -->
  <g transform="translate(550, 450)">
    <circle cx="40" cy="30" r="20" fill="#fbbf24"/>
    <rect x="30" y="50" width="20" height="25" fill="#059669"/>
    <path d="M20 60 L30 75 M50 60 L60 75" stroke="#1f2937" stroke-width="3"/>
    <!-- Stethoscope -->
    <circle cx="50" cy="35" r="4" fill="#ef4444"/>
    <path d="M54 35 Q65 30 60 45" stroke="#1f2937" stroke-width="2" fill="none"/>
    <!-- Magnifying glass -->
    <circle cx="20" cy="25" r="8" fill="none" stroke="#3b82f6" stroke-width="2"/>
    <path d="M26 31 L32 37" stroke="#3b82f6" stroke-width="2"/>
    <text x="40" y="95" text-anchor="middle" font-size="14" font-weight="bold" fill="#059669">Kiểm Tra</text>
  </g>
  
  <!-- Large central warning -->
  <g transform="translate(200, 50)">
    <rect x="0" y="0" width="400" height="60" fill="#fef2f2" stroke="#f87171" stroke-width="3" rx="15"/>
    <text x="50" y="40" font-size="32" fill="#dc2626">⚠️</text>
    <text x="200" y="40" text-anchor="middle" font-size="24" font-weight="bold" fill="#dc2626">AI Có Thể "Bịa Chuyện"</text>
    <text x="350" y="40" font-size="32" fill="#dc2626">⚠️</text>
  </g>
  
  <!-- Solution steps -->
  <g transform="translate(50, 520)">
    <rect x="0" y="0" width="700" height="50" fill="#f0fdf4" stroke="#22c55e" stroke-width="2" rx="10"/>
    
    <!-- Step indicators -->
    <circle cx="50" cy="25" r="15" fill="#22c55e"/>
    <text x="50" y="30" text-anchor="middle" font-size="12" font-weight="bold" fill="white">1</text>
    <text x="80" y="30" font-size="14" fill="#166534">Nghi Ngờ</text>
    
    <circle cx="200" cy="25" r="15" fill="#3b82f6"/>
    <text x="200" y="30" text-anchor="middle" font-size="12" font-weight="bold" fill="white">2</text>
    <text x="230" y="30" font-size="14" fill="#1e40af">Kiểm Tra</text>
    
    <circle cx="350" cy="25" r="15" fill="#f59e0b"/>
    <text x="350" y="30" text-anchor="middle" font-size="12" font-weight="bold" fill="white">3</text>
    <text x="380" y="30" font-size="14" fill="#92400e">Xác Minh</text>
    
    <circle cx="500" cy="25" r="15" fill="#8b5cf6"/>
    <text x="500" y="30" text-anchor="middle" font-size="12" font-weight="bold" fill="white">4</text>
    <text x="530" y="30" font-size="14" fill="#7c3aed">Quyết Định</text>
    
    <text x="650" y="30" font-size="20" fill="#22c55e">✓</text>
  </g>
  
  <!-- Arrow markers -->
  <defs>
    <marker id="blockedArrow" markerWidth="10" markerHeight="10" refX="1" refY="3" orient="auto" markerUnits="strokeWidth">
      <path d="M0,0 L0,6 L9,3 z" fill="#ef4444"/>
    </marker>
  </defs>
</svg>