<svg viewBox="0 0 800 600" xmlns="http://www.w3.org/2000/svg">
  <defs>
    <linearGradient id="bg" x1="0%" y1="0%" x2="100%" y2="100%">
      <stop offset="0%" style="stop-color:#f0f9ff"/>
      <stop offset="100%" style="stop-color:#e0f2fe"/>
    </linearGradient>
    <linearGradient id="securityGradient" x1="0%" y1="0%" x2="100%" y2="100%">
      <stop offset="0%" style="stop-color:#1e40af"/>
      <stop offset="100%" style="stop-color:#1e3a8a"/>
    </linearGradient>
    <radialGradient id="protectionGlow" cx="50%" cy="50%" r="50%">
      <stop offset="0%" style="stop-color:#93c5fd" stop-opacity="0.3"/>
      <stop offset="100%" style="stop-color:#93c5fd" stop-opacity="0"/>
    </radialGradient>
  </defs>
  
  <!-- Background -->
  <rect width="800" height="600" fill="url(#bg)"/>
  
  <!-- Title -->
  <text x="400" y="40" text-anchor="middle" font-family="Arial, sans-serif" font-size="24" font-weight="bold" fill="#1e293b">🔒 Bảo Mật Thông Tin Bệnh Nhân</text>
  
  <!-- Central digital lock protecting patient file -->
  <g transform="translate(350, 150)">
    <!-- Protection aura -->
    <ellipse cx="50" cy="50" rx="80" ry="70" fill="url(#protectionGlow)"/>
    
    <!-- Digital lock -->
    <rect x="20" y="30" width="60" height="50" fill="url(#securityGradient)" stroke="#1d4ed8" stroke-width="3" rx="8"/>
    
    <!-- Lock body details -->
    <circle cx="50" cy="45" r="8" fill="#3b82f6"/>
    <circle cx="50" cy="45" r="4" fill="#1e40af"/>
    <rect x="48" y="45" width="4" height="15" fill="#1e40af"/>
    
    <!-- Lock shackle -->
    <path d="M35 30 C35 15, 65 15, 65 30" stroke="#1e40af" stroke-width="4" fill="none"/>
    
    <!-- Digital keypad -->
    <g transform="translate(25, 35)">
      <circle cx="10" cy="5" r="2" fill="#22c55e"/>
      <circle cx="20" cy="5" r="2" fill="#64748b"/>
      <circle cx="30" cy="5" r="2" fill="#64748b"/>
      <circle cx="40" cy="5" r="2" fill="#64748b"/>
      
      <circle cx="10" cy="15" r="2" fill="#22c55e"/>
      <circle cx="20" cy="15" r="2" fill="#22c55e"/>
      <circle cx="30" cy="15" r="2" fill="#64748b"/>
      <circle cx="40" cy="15" r="2" fill="#64748b"/>
    </g>
    
    <!-- Security indicators -->
    <g transform="translate(10, 90)">
      <rect x="0" y="0" width="80" height="20" fill="#dcfce7" stroke="#22c55e" stroke-width="1" rx="10"/>
      <text x="40" y="12" text-anchor="middle" font-family="Arial, sans-serif" font-size="10" font-weight="bold" fill="#166534">🔐 ENCRYPTED</text>
    </g>
    
    <!-- Patient file behind lock -->
    <g transform="translate(30, 10)">
      <rect x="0" y="0" width="40" height="50" fill="white" stroke="#e5e7eb" stroke-width="2" rx="3"/>
      <rect x="5" y="5" width="30" height="3" fill="#3b82f6"/>
      <rect x="5" y="12" width="25" height="2" fill="#64748b"/>
      <rect x="5" y="18" width="20" height="2" fill="#64748b"/>
      <rect x="5" y="24" width="28" height="2" fill="#64748b"/>
      <rect x="5" y="30" width="15" height="2" fill="#64748b"/>
      
      <!-- Patient icon -->
      <circle cx="25" cy="40" r="4" fill="#fbbf24"/>
      <text x="25" y="44" text-anchor="middle" font-family="Arial, sans-serif" font-size="8" fill="#92400e">👤</text>
    </g>
  </g>
  
  <!-- Security threats being blocked -->
  <g transform="translate(100, 200)">
    <!-- Hacker figure -->
    <g>
      <circle cx="30" cy="20" r="8" fill="#1f2937"/>
      <rect x="25" y="28" width="10" height="15" fill="#374151"/>
      <path d="M20 35 L25 43 M35 35 L40 43" stroke="#1f2937" stroke-width="2"/>
      
      <!-- Hacker hood -->
      <path d="M22 20 Q30 10 38 20 Q30 25 22 20" fill="#111827"/>
      
      <!-- Evil eyes -->
      <circle cx="27" cy="18" r="1" fill="#ef4444"/>
      <circle cx="33" cy="18" r="1" fill="#ef4444"/>
      
      <!-- Laptop -->
      <rect x="15" y="45" width="30" height="20" fill="#374151" rx="2"/>
      <rect x="17" y="47" width="26" height="15" fill="#1f2937"/>
      <text x="30" y="56" text-anchor="middle" font-family="Arial, sans-serif" font-size="8" fill="#ef4444">HACK</text>
    </g>
    
    <!-- Attack arrows being blocked -->
    <g transform="translate(60, 30)">
      <path d="M0 0 L80 0" stroke="#ef4444" stroke-width="3" stroke-dasharray="5,5" marker-end="url(#attackArrow)"/>
      <path d="M0 15 L80 15" stroke="#ef4444" stroke-width="3" stroke-dasharray="5,5" marker-end="url(#attackArrow)"/>
      <path d="M0 30 L80 30" stroke="#ef4444" stroke-width="3" stroke-dasharray="5,5" marker-end="url(#attackArrow)"/>
      
      <!-- BLOCKED text -->
      <rect x="30" y="-10" width="40" height="50" fill="#fecaca" stroke="#ef4444" stroke-width="2" rx="5" opacity="0.9"/>
      <text x="50" y="10" text-anchor="middle" font-family="Arial, sans-serif" font-size="12" font-weight="bold" fill="#dc2626">BLOCKED</text>
      <text x="50" y="25" text-anchor="middle" font-family="Arial, sans-serif" font-size="10" fill="#dc2626">Bị chặn</text>
    </g>
  </g>
  
  <!-- Data transmission security -->
  <g transform="translate(100, 350)">
    <text x="300" y="20" text-anchor="middle" font-family="Arial, sans-serif" font-size="18" font-weight="bold" fill="#1e293b">Bảo Mật Trong Truyền Tải Dữ Liệu</text>
    
    <!-- Doctor's computer -->
    <g transform="translate(0, 40)">
      <rect x="0" y="20" width="80" height="50" fill="#64748b" rx="5"/>
      <rect x="5" y="25" width="70" height="35" fill="#1f2937"/>
      <rect x="30" y="70" width="20" height="5" fill="#64748b"/>
      <rect x="25" y="75" width="30" height="3" fill="#64748b"/>
      
      <!-- Doctor figure -->
      <circle cx="40" cy="10" r="6" fill="#fbbf24"/>
      <rect x="36" y="16" width="8" height="10" fill="#059669"/>
      <circle cx="45" cy="8" r="2" fill="#ef4444"/>
      
      <text x="40" y="95" text-anchor="middle" font-family="Arial, sans-serif" font-size="12" fill="#1e293b">Bác sĩ</text>
    </g>
    
    <!-- Encrypted data transmission -->
    <g transform="translate(120, 60)">
      <!-- Encryption tunnel -->
      <rect x="0" y="0" width="200" height="20" fill="#dcfce7" stroke="#22c55e" stroke-width="2" rx="10"/>
      
      <!-- Encrypted data packets -->
      <g>
        <rect x="10" y="5" width="15" height="10" fill="#22c55e" rx="2">
          <animate attributeName="x" values="10;180;10" dur="3s" repeatCount="indefinite"/>
        </rect>
        <text x="17" y="12" text-anchor="middle" font-family="Arial, sans-serif" font-size="6" fill="white">🔒</text>
        
        <rect x="40" y="5" width="15" height="10" fill="#22c55e" rx="2">
          <animate attributeName="x" values="40;210;40" dur="3s" begin="0.5s" repeatCount="indefinite"/>
        </rect>
        <text x="47" y="12" text-anchor="middle" font-family="Arial, sans-serif" font-size="6" fill="white">🔒</text>
        
        <rect x="70" y="5" width="15" height="10" fill="#22c55e" rx="2">
          <animate attributeName="x" values="70;240;70" dur="3s" begin="1s" repeatCount="indefinite"/>
        </rect>
        <text x="77" y="12" text-anchor="middle" font-family="Arial, sans-serif" font-size="6" fill="white">🔒</text>
      </g>
      
      <text x="100" y="35" text-anchor="middle" font-family="Arial, sans-serif" font-size="10" fill="#166534">SSL/TLS Encryption</text>
    </g>
    
    <!-- Cloud storage -->
    <g transform="translate(360, 40)">
      <!-- Cloud shape -->
      <ellipse cx="40" cy="35" rx="30" ry="15" fill="#3b82f6"/>
      <circle cx="25" cy="30" r="12" fill="#3b82f6"/>
      <circle cx="55" cy="30" r="12" fill="#3b82f6"/>
      <circle cx="40" cy="20" r="15" fill="#3b82f6"/>
      
      <!-- Lock in cloud -->
      <rect x="35" y="30" width="10" height="8" fill="#1e40af" rx="2"/>
      <circle cx="40" cy="32" r="2" fill="#93c5fd"/>
      
      <text x="40" y="65" text-anchor="middle" font-family="Arial, sans-serif" font-size="12" fill="#1e293b">Cloud Bảo Mật</text>
    </g>
    
    <!-- Security protocols -->
    <g transform="translate(500, 40)">
      <rect x="0" y="0" width="100" height="70" fill="#f1f5f9" stroke="#cbd5e1" stroke-width="2" rx="8"/>
      <text x="50" y="15" text-anchor="middle" font-family="Arial, sans-serif" font-size="10" font-weight="bold" fill="#1e293b">Giao Thức Bảo Mật</text>
      
      <text x="10" y="30" font-family="Arial, sans-serif" font-size="9" fill="#059669">✓ HTTPS</text>
      <text x="10" y="42" font-family="Arial, sans-serif" font-size="9" fill="#059669">✓ OAuth 2.0</text>
      <text x="10" y="54" font-family="Arial, sans-serif" font-size="9" fill="#059669">✓ API Key</text>
      <text x="10" y="66" font-family="Arial, sans-serif" font-size="9" fill="#059669">✓ 2FA</text>
    </g>
  </g>
  
  <!-- Privacy principles -->
  <g transform="translate(150, 500)">
    <rect x="0" y="0" width="500" height="80" fill="#fef3c7" stroke="#f59e0b" stroke-width="2" rx="10"/>
    <text x="250" y="20" text-anchor="middle" font-family="Arial, sans-serif" font-size="16" font-weight="bold" fill="#92400e">🛡️ Nguyên Tắc Bảo Mật Thông Tin Y Tế</text>
    
    <g transform="translate(20, 30)">
      <text x="0" y="15" font-family="Arial, sans-serif" font-size="12" fill="#92400e">• Chỉ thu thập thông tin cần thiết</text>
      <text x="0" y="30" font-family="Arial, sans-serif" font-size="12" fill="#92400e">• Mã hóa tất cả dữ liệu nhạy cảm</text>
      <text x="0" y="45" font-family="Arial, sans-serif" font-size="12" fill="#92400e">• Kiểm soát quyền truy cập chặt chẽ</text>
      
      <text x="250" y="15" font-family="Arial, sans-serif" font-size="12" fill="#92400e">• Không chia sẻ với bên thứ 3</text>
      <text x="250" y="30" font-family="Arial, sans-serif" font-size="12" fill="#92400e">• Xóa dữ liệu khi không cần</text>
      <text x="250" y="45" font-family="Arial, sans-serif" font-size="12" fill="#92400e">• Tuân thủ quy định pháp luật</text>
    </g>
  </g>
  
  <!-- Security layers visualization -->
  <g transform="translate(550, 150)">
    <text x="60" y="20" text-anchor="middle" font-family="Arial, sans-serif" font-size="14" font-weight="bold" fill="#1e293b">Nhiều Lớp Bảo Mật</text>
    
    <!-- Layer 1: Physical -->
    <ellipse cx="60" cy="60" rx="50" ry="15" fill="#ef4444" opacity="0.3"/>
    <text x="60" y="65" text-anchor="middle" font-family="Arial, sans-serif" font-size="10" fill="#dc2626">Vật lý</text>
    
    <!-- Layer 2: Network -->
    <ellipse cx="60" cy="80" rx="40" ry="12" fill="#f59e0b" opacity="0.5"/>
    <text x="60" y="85" text-anchor="middle" font-family="Arial, sans-serif" font-size="10" fill="#92400e">Mạng</text>
    
    <!-- Layer 3: Application -->
    <ellipse cx="60" cy="95" rx="30" ry="10" fill="#22c55e" opacity="0.6"/>
    <text x="60" y="100" text-anchor="middle" font-family="Arial, sans-serif" font-size="10" fill="#166534">Ứng dụng</text>
    
    <!-- Layer 4: Data -->
    <ellipse cx="60" cy="110" rx="20" ry="8" fill="#3b82f6" opacity="0.8"/>
    <text x="60" y="115" text-anchor="middle" font-family="Arial, sans-serif" font-size="10" fill="#1e40af">Dữ liệu</text>
  </g>
  
  <!-- Arrow markers -->
  <defs>
    <marker id="attackArrow" markerWidth="10" markerHeight="10" refX="9" refY="3" orient="auto" markerUnits="strokeWidth">
      <path d="M0,0 L0,6 L9,3 z" fill="#ef4444"/>
    </marker>
  </defs>
</svg>