<svg viewBox="0 0 800 600" xmlns="http://www.w3.org/2000/svg">
  <defs>
    <linearGradient id="bg" x1="0%" y1="0%" x2="100%" y2="100%">
      <stop offset="0%" style="stop-color:#f0fdf4"/>
      <stop offset="100%" style="stop-color:#ecfdf5"/>
    </linearGradient>
    <radialGradient id="centerGlow" cx="50%" cy="50%" r="50%">
      <stop offset="0%" style="stop-color:#bbf7d0" stop-opacity="0.8"/>
      <stop offset="100%" style="stop-color:#bbf7d0" stop-opacity="0"/>
    </radialGradient>
  </defs>
  
  <!-- Background -->
  <rect width="800" height="600" fill="url(#bg)"/>
  
  <!-- Central brain/mind -->
  <g transform="translate(400, 300)">
    <!-- Glow effect -->
    <ellipse cx="0" cy="0" rx="100" ry="80" fill="url(#centerGlow)"/>
    
    <!-- Brain shape -->
    <ellipse cx="0" cy="0" rx="70" ry="55" fill="#22c55e" stroke="#16a34a" stroke-width="4"/>
    
    <!-- Brain texture -->
    <g stroke="#16a34a" stroke-width="2" fill="none">
      <path d="M-35 -20 Q0 -30 35 -20"/>
      <path d="M-30 0 Q0 -15 30 0"/>
      <path d="M-35 20 Q0 10 35 20"/>
      <path d="M-25 -35 Q0 -40 25 -35"/>
      <path d="M-25 35 Q0 40 25 35"/>
    </g>
    
    <!-- Central icons -->
    <text x="0" y="-15" text-anchor="middle" font-size="24" fill="white">🧠</text>
    <text x="0" y="10" text-anchor="middle" font-size="24" fill="white">🤖</text>
    <text x="0" y="35" text-anchor="middle" font-size="24" fill="white">🏥</text>
  </g>
  
  <!-- Branch 1: Understanding (Top) -->
  <g transform="translate(400, 120)">
    <!-- Connection line -->
    <path d="M0 70 Q0 120 0 140" stroke="#3b82f6" stroke-width="6" fill="none"/>
    
    <!-- Branch circle -->
    <circle cx="0" cy="50" r="45" fill="#3b82f6" stroke="#1d4ed8" stroke-width="3"/>
    <text x="0" y="-5" text-anchor="middle" font-size="32" fill="white">🎓</text>
    <text x="0" y="35" text-anchor="middle" font-size="18" font-weight="bold" fill="white">HIỂU BIẾT</text>
    
    <!-- Sub-nodes -->
    <g transform="translate(-100, -30)">
      <circle cx="0" cy="0" r="25" fill="#dbeafe" stroke="#3b82f6" stroke-width="2"/>
      <text x="0" y="8" text-anchor="middle" font-size="20" fill="#1e40af">🤖</text>
      <path d="M25 15 Q50 30 65 45" stroke="#3b82f6" stroke-width="3" fill="none"/>
    </g>
    
    <g transform="translate(100, -30)">
      <circle cx="0" cy="0" r="25" fill="#dbeafe" stroke="#3b82f6" stroke-width="2"/>
      <text x="0" y="8" text-anchor="middle" font-size="20" fill="#1e40af">💬</text>
      <path d="M-25 15 Q-50 30 -65 45" stroke="#3b82f6" stroke-width="3" fill="none"/>
    </g>
    
    <g transform="translate(0, -80)">
      <circle cx="0" cy="0" r="25" fill="#dbeafe" stroke="#3b82f6" stroke-width="2"/>
      <text x="0" y="8" text-anchor="middle" font-size="20" fill="#1e40af">🧠</text>
      <path d="M0 25 Q0 40 0 55" stroke="#3b82f6" stroke-width="3" fill="none"/>
    </g>
  </g>
  
  <!-- Branch 2: Communication (Right) -->
  <g transform="translate(580, 300)">
    <!-- Connection line -->
    <path d="M-70 0 Q-120 0 -140 0" stroke="#ef4444" stroke-width="6" fill="none"/>
    
    <!-- Branch circle -->
    <circle cx="-50" cy="0" r="45" fill="#ef4444" stroke="#dc2626" stroke-width="3"/>
    <text x="-50" y="-15" text-anchor="middle" font-size="32" fill="white">💬</text>
    <text x="-50" y="20" text-anchor="middle" font-size="18" font-weight="bold" fill="white">GIAO TIẾP</text>
    
    <!-- Sub-nodes -->
    <g transform="translate(30, -60)">
      <circle cx="0" cy="0" r="25" fill="#fecaca" stroke="#ef4444" stroke-width="2"/>
      <text x="0" y="8" text-anchor="middle" font-size="20" fill="#dc2626">📝</text>
      <path d="M-25 15 Q-40 30 -55 45" stroke="#ef4444" stroke-width="3" fill="none"/>
    </g>
    
    <g transform="translate(30, 60)">
      <circle cx="0" cy="0" r="25" fill="#fecaca" stroke="#ef4444" stroke-width="2"/>
      <text x="0" y="8" text-anchor="middle" font-size="20" fill="#dc2626">🎯</text>
      <path d="M-25 -15 Q-40 -30 -55 -45" stroke="#ef4444" stroke-width="3" fill="none"/>
    </g>
    
    <g transform="translate(80, 0)">
      <circle cx="0" cy="0" r="25" fill="#fecaca" stroke="#ef4444" stroke-width="2"/>
      <text x="0" y="8" text-anchor="middle" font-size="20" fill="#dc2626">🔄</text>
      <path d="M-25 0 Q-40 0 -55 0" stroke="#ef4444" stroke-width="3" fill="none"/>
    </g>
  </g>
  
  <!-- Branch 3: Application (Bottom) -->
  <g transform="translate(400, 480)">
    <!-- Connection line -->
    <path d="M0 -70 Q0 -120 0 -140" stroke="#f59e0b" stroke-width="6" fill="none"/>
    
    <!-- Branch circle -->
    <circle cx="0" cy="-50" r="45" fill="#f59e0b" stroke="#d97706" stroke-width="3"/>
    <text x="0" y="-65" text-anchor="middle" font-size="32" fill="white">🔧</text>
    <text x="0" y="-35" text-anchor="middle" font-size="18" font-weight="bold" fill="white">ỨNG DỤNG</text>
    
    <!-- Sub-nodes -->
    <g transform="translate(-100, 30)">
      <circle cx="0" cy="0" r="25" fill="#fef3c7" stroke="#f59e0b" stroke-width="2"/>
      <text x="0" y="8" text-anchor="middle" font-size="20" fill="#92400e">🏥</text>
      <path d="M25 -15 Q50 -30 65 -45" stroke="#f59e0b" stroke-width="3" fill="none"/>
    </g>
    
    <g transform="translate(100, 30)">
      <circle cx="0" cy="0" r="25" fill="#fef3c7" stroke="#f59e0b" stroke-width="2"/>
      <text x="0" y="8" text-anchor="middle" font-size="20" fill="#92400e">📊</text>
      <path d="M-25 -15 Q-50 -30 -65 -45" stroke="#f59e0b" stroke-width="3" fill="none"/>
    </g>
    
    <g transform="translate(0, 80)">
      <circle cx="0" cy="0" r="25" fill="#fef3c7" stroke="#f59e0b" stroke-width="2"/>
      <text x="0" y="8" text-anchor="middle" font-size="20" fill="#92400e">📚</text>
      <path d="M0 -25 Q0 -40 0 -55" stroke="#f59e0b" stroke-width="3" fill="none"/>
    </g>
  </g>
  
  <!-- Branch 4: Safety (Left) -->
  <g transform="translate(220, 300)">
    <!-- Connection line -->
    <path d="M70 0 Q120 0 140 0" stroke="#8b5cf6" stroke-width="6" fill="none"/>
    
    <!-- Branch circle -->
    <circle cx="50" cy="0" r="45" fill="#8b5cf6" stroke="#7c3aed" stroke-width="3"/>
    <text x="50" y="-15" text-anchor="middle" font-size="32" fill="white">🛡️</text>
    <text x="50" y="20" text-anchor="middle" font-size="18" font-weight="bold" fill="white">AN TOÀN</text>
    
    <!-- Sub-nodes -->
    <g transform="translate(-30, -60)">
      <circle cx="0" cy="0" r="25" fill="#f3e8ff" stroke="#8b5cf6" stroke-width="2"/>
      <text x="0" y="8" text-anchor="middle" font-size="20" fill="#7c3aed">⚖️</text>
      <path d="M25 15 Q40 30 55 45" stroke="#8b5cf6" stroke-width="3" fill="none"/>
    </g>
    
    <g transform="translate(-30, 60)">
      <circle cx="0" cy="0" r="25" fill="#f3e8ff" stroke="#8b5cf6" stroke-width="2"/>
      <text x="0" y="8" text-anchor="middle" font-size="20" fill="#7c3aed">🔍</text>
      <path d="M25 -15 Q40 -30 55 -45" stroke="#8b5cf6" stroke-width="3" fill="none"/>
    </g>
    
    <g transform="translate(-80, 0)">
      <circle cx="0" cy="0" r="25" fill="#f3e8ff" stroke="#8b5cf6" stroke-width="2"/>
      <text x="0" y="8" text-anchor="middle" font-size="20" fill="#7c3aed">🔒</text>
      <path d="M25 0 Q40 0 55 0" stroke="#8b5cf6" stroke-width="3" fill="none"/>
    </g>
  </g>
  
  <!-- Learning progression levels -->
  <g transform="translate(50, 50)">
    <circle cx="20" cy="20" r="15" fill="#fbbf24"/>
    <text x="20" y="26" text-anchor="middle" font-size="12" font-weight="bold" fill="white">1</text>
    <text x="45" y="26" font-size="16" fill="#92400e">Cơ Bản</text>
    
    <circle cx="20" cy="60" r="15" fill="#f59e0b"/>
    <text x="20" y="66" text-anchor="middle" font-size="12" font-weight="bold" fill="white">2</text>
    <text x="45" y="66" font-size="16" fill="#92400e">Trung Cấp</text>
    
    <circle cx="20" cy="100" r="15" fill="#ef4444"/>
    <text x="20" y="106" text-anchor="middle" font-size="12" font-weight="bold" fill="white">3</text>
    <text x="45" y="106" font-size="16" fill="#dc2626">Nâng Cao</text>
    
    <circle cx="20" cy="140" r="15" fill="#8b5cf6"/>
    <text x="20" y="146" text-anchor="middle" font-size="12" font-weight="bold" fill="white">4</text>
    <text x="45" y="146" font-size="16" fill="#7c3aed">Chuyên Gia</text>
  </g>
  
  <!-- Progress visualization -->
  <g transform="translate(600, 50)">
    <rect x="0" y="0" width="150" height="120" fill="#f8fafc" stroke="#e2e8f0" stroke-width="2" rx="8"/>
    <text x="75" y="20" text-anchor="middle" font-size="16" font-weight="bold" fill="#1e293b">🎯 Tiến Độ</text>
    
    <!-- Progress circles -->
    <g transform="translate(30, 30)">
      <circle cx="20" cy="20" r="15" fill="#3b82f6"/>
      <text x="20" y="26" text-anchor="middle" font-size="10" font-weight="bold" fill="white">75%</text>
      <text x="20" y="45" text-anchor="middle" font-size="8" fill="#3b82f6">Hiểu</text>
      
      <circle cx="60" cy="20" r="15" fill="#ef4444"/>
      <text x="60" y="26" text-anchor="middle" font-size="10" font-weight="bold" fill="white">60%</text>
      <text x="60" y="45" text-anchor="middle" font-size="8" fill="#ef4444">Giao Tiếp</text>
      
      <circle cx="20" cy="60" r="15" fill="#f59e0b"/>
      <text x="20" y="66" text-anchor="middle" font-size="10" font-weight="bold" fill="white">40%</text>
      <text x="20" y="85" text-anchor="middle" font-size="8" fill="#f59e0b">Ứng Dụng</text>
      
      <circle cx="60" cy="60" r="15" fill="#8b5cf6"/>
      <text x="60" y="66" text-anchor="middle" font-size="10" font-weight="bold" fill="white">70%</text>
      <text x="60" y="85" text-anchor="middle" font-size="8" fill="#8b5cf6">An Toàn</text>
    </g>
  </g>
  
  <!-- Integration connections (subtle) -->
  <g stroke="#22c55e" stroke-width="3" fill="none" opacity="0.4" stroke-dasharray="8,8">
    <path d="M480 200 Q520 240 530 260"/>
    <path d="M530 340 Q480 380 450 420"/>
    <path d="M320 420 Q280 380 270 340"/>
    <path d="M270 260 Q320 220 350 200"/>
  </g>
  
  <!-- Central title -->
  <g transform="translate(200, 520)">
    <text x="200" y="30" text-anchor="middle" font-size="24" font-weight="bold" fill="#1e293b">Hành Trình Học AI</text>
    <text x="100" y="55" font-size="32" fill="#22c55e">🌱</text>
    <text x="200" y="55" text-anchor="middle" font-size="20" fill="#64748b">→</text>
    <text x="300" y="55" font-size="32" fill="#3b82f6">🌳</text>
  </g>
</svg>